<?xml version="1.0" encoding="UTF-8"?>
<svg id="Layer_2" data-name="Layer 2" xmlns="http://www.w3.org/2000/svg" viewBox="0 0 439.49 151.6">
  <g id="Layer_1-2" data-name="Layer 1">
    <g id="Mate">
      <g>
        <path d="m146.44,30c0-16.54-13.46-30-30-30H30C13.46,0,0,13.46,0,30v37.01C0,83.55,13.46,97.01,30,97.01h86.44c5.51,0,10,4.49,10,10v9.43c0,5.51-4.49,10-10,10H49.95c-5.52,0-10,4.48-10,10s4.48,10,10,10h66.49c16.54,0,30-13.46,30-30v-9.43c0-7.68-2.9-14.69-7.66-20,4.76-5.31,7.66-12.32,7.66-20V30Zm-98.94,47.01h-17.5c-5.51,0-10-4.49-10-10V30c0-5.51,4.49-10,10-10h86.44c5.51,0,10,4.49,10,10v37.01c0,5.51-4.49,10-10,10H47.5Z"/>
        <path d="m19.24,132.61c-.25-.6-.56-1.18-.92-1.73-.37-.54-.78-1.06-1.25-1.52-.46-.46-.97-.87-1.52-1.24-.54-.36-1.12-.67-1.72-.92s-1.23-.44-1.87-.57c-1.29-.26-2.62-.26-3.91,0-.64.13-1.27.32-1.87.57s-1.19.56-1.73.92c-.55.37-1.06.78-1.52,1.24s-.88.98-1.24,1.52c-.36.55-.67,1.13-.92,1.73-.25.6-.44,1.23-.57,1.87-.13.65-.2,1.3-.2,1.96s.07,1.3.2,1.95c.13.64.32,1.27.57,1.87.25.6.56,1.18.92,1.73.36.54.78,1.05,1.24,1.51.46.47.97.88,1.52,1.25.54.36,1.13.67,1.73.92s1.23.44,1.87.57c.65.13,1.3.2,1.96.2s1.3-.07,1.95-.2c.64-.13,1.27-.32,1.87-.57s1.18-.56,1.72-.92c.55-.37,1.06-.78,1.52-1.25.47-.46.88-.97,1.25-1.51.36-.55.67-1.13.92-1.73.25-.6.44-1.23.57-1.87.13-.65.19-1.3.19-1.95s-.06-1.31-.19-1.96c-.13-.64-.32-1.27-.57-1.87Z"/>
      </g>
      <g>
        <path d="m204.22,76.87c-5.56,0-10.64-.83-15.26-2.49-4.62-1.66-8.56-3.97-11.83-6.93-3.26-2.96-5.74-6.51-7.44-10.65-1.7-4.14-2.4-8.7-2.1-13.7.3-5.37,1.51-10.04,3.63-14.01,2.13-3.97,4.94-7.3,8.44-9.98,3.5-2.68,7.56-4.76,12.16-6.23,4.6-1.47,9.55-2.39,14.84-2.77,1.23-.07,2.68-.1,4.36-.08,1.68.02,3.5.11,5.48.28,1.97.17,4.05.44,6.23.81,1.94.33,3.88.75,5.84,1.26.43.11.73.51.73.95v11.92c0,.67-.65,1.12-1.29.91-1.64-.54-3.29-.99-4.97-1.34-2.13-.45-4.16-.78-6.09-1.01-1.94-.22-3.72-.35-5.34-.39s-2.95-.02-4,.06c-3.32.22-6.57.75-9.76,1.57-3.19.82-6.04,2.01-8.55,3.58s-4.54,3.53-6.07,5.9c-1.53,2.37-2.29,5.23-2.29,8.58s.58,6.42,1.73,8.97c1.16,2.55,2.77,4.68,4.84,6.37,2.07,1.7,4.53,2.96,7.38,3.8s5.95,1.26,9.31,1.26c1.79,0,3.27-.31,4.44-.92,1.17-.61,2.06-1.39,2.66-2.32.6-.93.95-1.93,1.06-2.99s0-2.06-.34-2.99-.86-1.71-1.57-2.32c-.71-.62-1.55-.92-2.52-.92h-4.62c-.54,0-.97-.43-.97-.97v-7.95c0-.54.43-.97.97-.97h27.86c.54,0,.97.43.97.97v7.95c0,.54-.43.97-.97.97h-14.29v1.34c3.2.3,5.9,1.12,8.08,2.46s3.75,2.92,4.7,4.72,1.21,3.73.78,5.76c-.43,2.03-1.64,3.91-3.63,5.62s-4.85,3.13-8.58,4.25c-3.73,1.12-8.41,1.68-14.03,1.68Z"/>
        <path d="m243.69,73.96c-1.12-.78-2.09-1.73-2.91-2.85-.82-1.12-1.44-2.32-1.84-3.61-.41-1.29-.61-2.59-.59-3.91.02-1.32.31-2.6.87-3.83.86-1.86,2.12-3.37,3.8-4.53s3.53-2.07,5.56-2.74c2.03-.67,4.16-1.15,6.37-1.43,2.22-.28,4.31-.47,6.26-.59,1.96-.11,3.68-.19,5.17-.22,1.49-.04,2.55-.17,3.19-.39,1.19-.41,2.19-1.08,2.99-2.01.8-.93,1.2-2.05,1.2-3.35,0-1.16-.26-2.12-.78-2.91-.52-.78-1.24-1.42-2.15-1.9-.91-.48-1.98-.83-3.19-1.03-1.21-.2-2.51-.31-3.89-.31-1.23,0-2.51.08-3.83.22-1.32.15-2.61.35-3.86.62-1.25.26-2.46.56-3.63.9s-2.25.69-3.22,1.06c-1.31.52-2.55,1.11-3.75,1.76-1.19.65-2.24,1.26-3.13,1.82-.43.26-.84.53-1.23.79-.69.46-1.59-.08-1.51-.91.17-1.64.32-3.2.45-4.7.07-.89.16-1.81.25-2.74.09-.93.18-1.82.25-2.66s.15-1.6.22-2.29c.05-.45.09-.85.12-1.2.03-.32.22-.61.5-.76,3.48-1.95,7.18-3.33,11.09-4.13,4.08-.84,8.19-1.16,12.33-.98,1.94.07,3.87.29,5.79.64,1.92.35,3.77.9,5.56,1.65,2.16.89,3.97,1.98,5.42,3.27s2.63,2.74,3.52,4.36c.9,1.62,1.53,3.41,1.9,5.37.37,1.96.56,4.05.56,6.29,0,2.05-.06,4.1-.17,6.15-.11,2.05-.07,4.12.11,6.21.11,1.08.4,1.94.87,2.57.47.63,1.24.95,2.32.95.41,0,.86-.05,1.34-.14.48-.09,1.04-.25,1.68-.47-.11,2.24-.23,4.44-.36,6.63-.12,1.92-.22,3.85-.32,5.81-.02.47-.38.86-.84.92-.53.07-1.06.12-1.6.17-.75.07-1.56.14-2.43.2-.88.06-1.8.08-2.77.08-1.34,0-2.63-.08-3.86-.25-1.23-.17-2.18-.5-2.85-.98-.67-.48-1.22-1.07-1.65-1.76s-.75-1.43-.98-2.24c-.22-.8-.37-1.63-.45-2.49-.05-.53-.08-1.05-.1-1.57s-.44-.95-.97-.95h-.3c-.4,0-.74.25-.89.61-.64,1.51-1.55,2.88-2.75,4.11-1.36,1.4-2.93,2.58-4.72,3.55-1.79.97-3.71,1.71-5.76,2.24-2.05.52-4.1.78-6.15.78-1.9,0-3.74-.23-5.51-.7-1.77-.47-3.36-1.2-4.78-2.21Zm7.32-14.03c0,1.31.44,2.3,1.31,2.99.88.69,1.92,1.19,3.13,1.51,1.21.32,2.44.5,3.69.56,1.25.06,2.26.08,3.05.08,1.23,0,2.43-.12,3.61-.36s2.22-.61,3.13-1.09c.91-.48,1.66-1.05,2.24-1.71.58-.65.87-1.41.87-2.26,0-1.23-.32-2.2-.95-2.91-.63-.71-1.44-1.25-2.4-1.62-.97-.37-2.03-.62-3.19-.73-1.16-.11-2.26-.17-3.3-.17s-2.15.07-3.44.2c-1.29.13-2.5.4-3.63.81s-2.11.99-2.91,1.73c-.8.75-1.2,1.73-1.2,2.96Z"/>
        <path d="m299.76,74.86c-.55,0-.99-.46-.97-1.01.1-3.34.17-6.29.22-8.83.06-2.8.1-5.34.14-7.63.04-2.29.06-4.47.06-6.54s-.02-4.25-.06-6.54c-.04-2.29-.08-4.83-.14-7.6-.05-2.53-.12-5.46-.22-8.8-.02-.55.42-1.01.97-1.01h11.99c.56,0,1,.46.97,1.02-.01.22-.03.48-.04.77-.07.86-.13,2.21-.17,4.05-.04,1.84-.07,4.44-.11,7.8h.99c.41,0,.77-.27.91-.65.99-2.76,2.16-5.07,3.49-6.92,1.43-1.99,2.97-3.58,4.61-4.75s3.33-1.99,5.06-2.46c1.73-.47,3.42-.7,5.06-.7s3.37.34,4.98,1.01c1.6.67,3.04,1.66,4.31,2.96,1.27,1.31,2.33,2.93,3.19,4.86.86,1.94,1.43,4.16,1.73,6.65h.88c.41,0,.77-.27.91-.65.99-2.76,2.16-5.07,3.49-6.92,1.43-1.99,2.97-3.58,4.61-4.75s3.33-1.99,5.06-2.46c1.73-.47,3.42-.7,5.06-.7,2.05,0,4,.47,5.84,1.43,1.84.95,3.44,2.34,4.78,4.17,1.34,1.83,2.36,4.08,3.05,6.76.69,2.68.92,5.76.7,9.23-.65,9.09-.67,18.15-.07,27.2.04.56-.4,1.03-.96,1.03h-12.36c-.54,0-.97-.43-.97-.97v-23.52c0-2.31-.17-4.28-.5-5.9-.34-1.62-.78-2.94-1.34-3.97s-1.22-1.77-1.98-2.24c-.76-.47-1.57-.7-2.43-.7-1.45,0-2.93.56-4.42,1.68-1.48,1.11-2.79,2.56-3.94,4.37-.02.03-.04.07-.06.1-1.11,2.07-2.03,4.41-2.77,6.99-.75,2.61-1.34,5.3-1.79,8.08-.45,2.78-.78,5.56-1.01,8.33-.19,2.42-.33,4.7-.41,6.82-.02.52-.45.93-.97.93h-11.68c-.54,0-.97-.43-.97-.97v-23.52c0-2.31-.17-4.28-.5-5.9-.34-1.62-.78-2.94-1.34-3.97-.56-1.03-1.22-1.77-1.98-2.24-.76-.47-1.58-.7-2.43-.7-1.42,0-2.87.56-4.36,1.68-1.48,1.11-2.79,2.57-3.94,4.37-.02.03-.04.06-.05.09-.92,1.67-1.72,3.51-2.41,5.52s-1.29,4.31-1.79,6.85c-.5,2.53-.93,5.35-1.29,8.44-.33,2.85-.61,5.99-.86,9.43-.04.51-.46.91-.97.91h-10.79Z"/>
        <path d="m418.35,76.87c-4.66,0-8.86-.63-12.61-1.9-3.75-1.27-6.93-3.05-9.56-5.34-2.63-2.29-4.66-5.05-6.09-8.27-1.44-3.22-2.15-6.81-2.15-10.76s.66-7.33,1.98-10.48c1.32-3.15,3.2-5.84,5.65-8.08,2.44-2.24,5.38-3.96,8.81-5.17,3.43-1.21,7.25-1.82,11.46-1.82,4.88,0,8.99.73,12.33,2.18,3.34,1.45,5.9,3.28,7.69,5.48s2.82,4.57,3.1,7.1c.28,2.54-.19,4.9-1.4,7.1-1.21,2.2-3.16,4.03-5.84,5.48-2.68,1.45-6.08,2.18-10.18,2.18h-18.2c-.7,0-1.19.73-.89,1.37.52,1.12,1.18,2.09,1.98,2.91,1.12,1.14,2.4,2.05,3.86,2.74,1.45.69,3.04,1.18,4.75,1.48s3.48.45,5.31.45c1.94,0,3.78-.11,5.53-.34s3.32-.48,4.7-.78c1.38-.3,2.55-.6,3.52-.9.49-.15.91-.29,1.26-.41.47-.17.98.05,1.19.51l4.84,10.35c.23.5.01,1.1-.49,1.3-2.01.82-4.56,1.6-7.66,2.34-3.6.86-7.89,1.29-12.89,1.29Zm-2.52-38.47c-2.24,0-4.25.21-6.04.64s-3.31,1.13-4.56,2.1c-1.25.97-2.22,2.23-2.91,3.77-.69,1.55-1.03,3.44-1.03,5.67,0,.37.02.63.06.78h16.16c1.79,0,3.33-.32,4.61-.95,1.29-.63,2.27-1.43,2.96-2.4.69-.97,1.05-2.01,1.09-3.13.04-1.12-.3-2.16-1.01-3.13-.71-.97-1.84-1.77-3.38-2.4s-3.53-.95-5.95-.95Z"/>
      </g>
      <g>
        <path d="m167.68,123.2c1.51.47,3.2.9,5.04,1.3,1.85.4,3.74.75,5.68,1.05,1.94.3,3.87.54,5.79.7,1.91.17,3.71.25,5.39.25.71,0,1.56-.01,2.52-.04.96-.03,1.97-.09,3.02-.19s2.09-.24,3.14-.43c1.05-.19,2-.46,2.85-.79.85-.33,1.57-.74,2.15-1.22.58-.48.94-1.08,1.07-1.8.19-.99-.01-1.88-.62-2.67-.61-.79-1.5-1.51-2.69-2.17-1.19-.66-2.6-1.27-4.24-1.84-1.64-.56-3.41-1.12-5.31-1.65-1.9-.54-3.88-1.08-5.93-1.63-2.05-.55-4.06-1.14-6.02-1.78-1.43-.44-2.85-.95-4.26-1.53-1.41-.58-2.67-1.27-3.78-2.07-1.12-.8-2.03-1.75-2.73-2.85-.7-1.1-1.05-2.41-1.05-3.93,0-2.4.61-4.42,1.82-6.06,1.21-1.64,2.93-2.96,5.17-3.97s4.91-1.74,8.04-2.19c3.13-.45,6.61-.68,10.44-.68,1.32,0,2.73.05,4.22.14s2.97.23,4.45.41c1.47.18,2.91.39,4.32.62,1.04.17,2.02.36,2.96.55.57.12.97.63.97,1.21v7.6c0,.81-.76,1.4-1.55,1.2-.56-.15-1.18-.29-1.84-.43-1.35-.29-2.8-.54-4.34-.74-1.54-.21-3.11-.37-4.69-.5-1.59-.12-3.08-.19-4.49-.19-3.47,0-6.28.17-8.41.5-2.14.33-3.78.69-4.94,1.08-1.24.41-2.1,1.03-2.58,1.84-.48.81-.62,1.69-.41,2.62.21.94.74,1.85,1.61,2.75.87.9,2.03,1.63,3.49,2.21,2.56,1.05,5.14,1.92,7.73,2.62s5.06,1.35,7.42,1.94c2.36.59,4.54,1.21,6.55,1.84,2.01.63,3.73,1.41,5.17,2.32s2.52,2.03,3.27,3.37c.74,1.34,1.02,3,.83,4.98-.14,1.3-.5,2.47-1.08,3.54-.58,1.06-1.3,2-2.17,2.83-.87.83-1.85,1.54-2.96,2.15-1.1.61-2.23,1.09-3.39,1.45-2.23.66-4.5,1.07-6.8,1.22s-4.61.23-6.92.23c-2.07,0-4.14-.08-6.22-.23s-4.08-.37-5.99-.66c-1.92-.29-3.71-.63-5.4-1.03-1.32-.31-2.5-.66-3.54-1.03-.5-.18-.84-.64-.84-1.17v-9.07h.08Z"/>
        <path d="m221.67,117.5c0-2.98.38-5.62,1.14-7.92.76-2.3,1.8-4.24,3.14-5.83,1.34-1.58,2.94-2.78,4.8-3.6,1.86-.81,3.89-1.22,6.1-1.22,1.52,0,2.91.21,4.2.64,1.28.43,2.4,1.05,3.35,1.88.95.83,1.71,1.84,2.27,3.04.43.92.73,1.94.9,3.04.09.6.61,1.03,1.22,1.03h.3l-.33-6s0-.05,0-.07v-1.75c0-.68.55-1.24,1.24-1.24h8.15c.7,0,1.26.57,1.24,1.27-.06,2.14-.11,4.4-.15,6.77-.04,2.85-.08,5.79-.1,8.83-.03,3.03-.03,6.1-.02,9.2s.03,6.17.04,9.2.04,5.97.08,8.81c.03,2.36.08,4.61.15,6.75.02.7-.54,1.27-1.24,1.27h-10c-.79,0-1.37-.73-1.2-1.51.61-2.83,1.07-5.51,1.38-8.04.37-2.98.63-5.64.77-7.98.14-2.34.2-4.31.19-5.89s0-2.67.02-3.25l-1.12-.25c-.33,1.85-.84,3.45-1.53,4.79-.69,1.35-1.51,2.47-2.46,3.35-.95.88-2.03,1.54-3.22,1.96s-2.47.64-3.82.64c-2.43,0-4.6-.4-6.51-1.2-1.92-.8-3.53-1.96-4.86-3.49-1.32-1.53-2.34-3.41-3.04-5.64-.7-2.23-1.05-4.77-1.05-7.61Zm8.6-.87c-.03.96.05,1.96.25,2.98s.53,1.98,1.01,2.87,1.12,1.67,1.92,2.32,1.78,1.09,2.94,1.34c.85.17,1.67.25,2.44.25,1.9,0,3.5-.47,4.79-1.41,1.29-.94,2.27-2.19,2.94-3.76.58-1.35.89-2.74.93-4.18.04-1.43-.2-2.75-.72-3.95-.53-1.2-1.34-2.22-2.46-3.06-1.12-.84-2.54-1.37-4.28-1.59-1.27-.17-2.48-.08-3.64.27-1.16.34-2.19.89-3.08,1.63-.9.74-1.61,1.65-2.15,2.73-.54,1.08-.83,2.26-.89,3.56Z"/>
        <path d="m281.24,136.26c-1.54,0-2.99-.35-4.34-1.05-1.35-.7-2.52-1.73-3.51-3.08s-1.74-3.02-2.23-5c-.5-1.98-.66-4.26-.5-6.82.44-6.51.46-13.03.08-19.57-.04-.71.52-1.31,1.23-1.31h8.04c.68,0,1.24.55,1.24,1.24v16.83c0,1.74.12,3.2.37,4.4.25,1.2.59,2.18,1.03,2.94.44.76.94,1.31,1.51,1.65.56.35,1.16.52,1.8.52,1.07,0,2.16-.41,3.27-1.24,1.1-.83,2.05-1.92,2.85-3.27.71-1.21,1.33-2.57,1.84-4.07.51-1.5.95-3.19,1.32-5.06.37-1.87.68-3.96.93-6.26.21-1.98.41-4.15.58-6.51.05-.65.58-1.16,1.23-1.16h6.96c.7,0,1.26.58,1.24,1.28-.07,2.28-.12,4.31-.17,6.08-.06,2.09-.1,4-.12,5.71s-.04,3.34-.04,4.9.01,3.2.04,4.94c.03.77.22,1.39.58,1.86.36.47.95.7,1.78.7.3,0,.64-.04,1.01-.1.37-.07.79-.19,1.26-.35-.08,1.65-.17,3.29-.25,4.9-.07,1.3-.14,2.62-.23,3.95-.04.57-.45,1.04-1.01,1.14-.43.08-.94.17-1.52.26-1.06.17-2.17.25-3.33.25-.88,0-1.74-.08-2.58-.25-.84-.17-1.58-.48-2.21-.95-.85-.63-1.51-1.34-1.96-2.13-.46-.79-.79-1.58-.99-2.38-.21-.8-.32-1.58-.35-2.36-.03-.77-.04-1.47-.04-2.11-.06.03-.14.04-.27.04h-.89c-.77,2.26-1.69,4.13-2.75,5.6-1.06,1.47-2.2,2.65-3.41,3.51s-2.46,1.47-3.74,1.82c-1.28.34-2.53.52-3.74.52Z"/>
        <path d="m323.16,134.24c-.83-.58-1.54-1.28-2.15-2.11-.61-.83-1.06-1.72-1.36-2.67-.3-.95-.45-1.92-.44-2.89.01-.98.23-1.92.64-2.83.63-1.38,1.57-2.49,2.81-3.35,1.24-.85,2.61-1.53,4.11-2.03,1.5-.5,3.07-.85,4.71-1.05,1.64-.21,3.18-.35,4.63-.43,1.45-.08,2.72-.14,3.82-.17s1.89-.12,2.36-.29c.88-.3,1.62-.8,2.21-1.49.59-.69.89-1.51.89-2.48,0-.85-.19-1.57-.58-2.15-.39-.58-.92-1.05-1.59-1.41s-1.46-.61-2.36-.76c-.89-.15-1.85-.23-2.87-.23-.91,0-1.85.06-2.83.17-.98.11-1.93.26-2.85.46-.92.19-1.82.41-2.69.66-.87.25-1.66.51-2.38.79-.96.39-1.89.82-2.77,1.3-.88.48-1.65.93-2.31,1.34,0,0-.02,0-.02.01-.88.54-2-.15-1.9-1.17.08-.83.16-1.62.22-2.4.05-.66.12-1.34.19-2.03.07-.69.13-1.34.19-1.96s.11-1.18.17-1.7c.02-.22.05-.43.06-.62.04-.41.28-.77.63-.96,2.5-1.37,5.16-2.35,7.96-2.92,3.02-.62,6.06-.86,9.12-.72,1.43.06,2.86.21,4.28.48,1.42.26,2.79.67,4.11,1.22,1.6.66,2.94,1.47,4.01,2.42,1.08.95,1.94,2.03,2.61,3.22.66,1.2,1.13,2.52,1.41,3.97.27,1.45.41,3,.41,4.65,0,1.52-.04,3.03-.12,4.55-.08,1.52-.06,3.05.08,4.59.08.8.3,1.43.64,1.9s.92.7,1.72.7c.3,0,.63-.03.99-.1.36-.07.77-.19,1.24-.35-.08,1.65-.17,3.29-.27,4.9-.08,1.27-.15,2.56-.22,3.86-.03.61-.5,1.1-1.11,1.17-.24.03-.48.05-.72.07-.55.05-1.15.1-1.8.14-.65.04-1.33.06-2.04.06-.99,0-1.94-.06-2.85-.19-.91-.12-1.61-.37-2.11-.72-.5-.36-.9-.79-1.22-1.3s-.56-1.06-.72-1.65-.28-1.21-.33-1.84c-.06-.63-.08-1.25-.08-1.86h-.58c-.5,0-.93.31-1.14.76-.46.99-1.09,1.9-1.9,2.73-1.01,1.03-2.17,1.91-3.49,2.62-1.32.72-2.74,1.27-4.26,1.65-1.52.39-3.03.58-4.55.58-1.4,0-2.76-.17-4.07-.52-1.31-.34-2.49-.89-3.53-1.63Zm5.41-10.38c0,.96.32,1.7.97,2.21.65.51,1.42.88,2.31,1.12.9.23,1.8.37,2.73.41.92.04,1.67.06,2.25.06.91,0,1.8-.09,2.67-.27.87-.18,1.64-.45,2.31-.81.68-.36,1.23-.78,1.65-1.26.43-.48.64-1.04.64-1.67,0-.91-.23-1.63-.7-2.15-.47-.52-1.06-.92-1.78-1.2s-1.5-.46-2.36-.54c-.86-.08-1.67-.12-2.44-.12s-1.59.05-2.54.14c-.95.1-1.85.3-2.69.6-.84.3-1.56.73-2.15,1.28-.59.55-.89,1.28-.89,2.19Z"/>
        <path d="m370.13,134.9c-.7,0-1.26-.57-1.24-1.28.08-2.28.14-4.69.18-7.24.04-3.03.06-6.09.06-9.18s-.02-6.15-.06-9.18c-.04-2.55-.1-4.96-.18-7.24-.03-.7.53-1.28,1.24-1.28h7.18c.67,0,1.22.53,1.24,1.21s.03,1.29.05,1.94c.03.88.04,1.84.04,2.87s.01,1.99.04,2.87c0,.41,0,.79.02,1.14s.02.64.02.89c0,.3.01.57.04.79l1.07-.04c.22-1.68.58-3.23,1.08-4.65s1.1-2.65,1.8-3.7c.7-1.05,1.48-1.89,2.33-2.54.86-.65,1.75-1.05,2.69-1.22.47-.11.96-.21,1.47-.29.51-.08,1.11-.12,1.8-.12.63,0,1.37.06,2.19.19.51.08,1.07.19,1.68.35.65.17,1.06.83.9,1.49l-1.57,6.7c-.18.78-1.06,1.21-1.77.82-.42-.23-.83-.42-1.23-.57-.83-.3-1.61-.45-2.36-.45-1.05,0-2.01.25-2.87.76-.87.51-1.65,1.19-2.34,2.03-.69.84-1.29,1.79-1.8,2.83-.51,1.05-.93,2.11-1.26,3.18-.52,1.63-.98,3.94-1.38,6.95-.37,2.76-.62,6.35-.77,10.78-.02.67-.57,1.21-1.24,1.21h-7.07Z"/>
        <path d="m423.54,136.39c-3.45,0-6.55-.47-9.32-1.41s-5.12-2.25-7.07-3.95-3.45-3.73-4.51-6.12c-1.06-2.38-1.59-5.04-1.59-7.96s.49-5.42,1.47-7.75c.98-2.33,2.37-4.32,4.18-5.97,1.8-1.65,3.97-2.93,6.51-3.82,2.54-.89,5.36-1.34,8.47-1.34,3.61,0,6.65.54,9.12,1.61,2.47,1.07,4.36,2.42,5.68,4.05,1.32,1.63,2.09,3.38,2.29,5.25.21,1.88-.14,3.62-1.03,5.25-.9,1.63-2.34,2.98-4.32,4.05-1.98,1.08-4.49,1.61-7.52,1.61h-12.59c-.96,0-1.57,1.06-1.07,1.87.29.48.63.91,1.01,1.29.83.84,1.78,1.52,2.85,2.03,1.08.51,2.25.88,3.51,1.1s2.58.33,3.93.33c1.43,0,2.8-.08,4.09-.25,1.29-.17,2.45-.36,3.47-.58,1.02-.22,1.89-.44,2.6-.66.18-.06.35-.11.5-.16.6-.19,1.24.08,1.51.65l3.15,6.73c.3.65,0,1.42-.67,1.68-1.39.53-3.1,1.04-5.13,1.52-2.66.63-5.84.95-9.53.95Zm-1.86-28.44c-1.65,0-3.14.16-4.46.48-1.32.32-2.45.83-3.37,1.55-.92.72-1.64,1.65-2.15,2.79s-.77,2.54-.77,4.2c0,.28.01.47.04.58h11.95c1.32,0,2.46-.23,3.41-.7s1.68-1.06,2.19-1.78c.51-.72.78-1.49.8-2.31.03-.83-.22-1.6-.74-2.32-.52-.72-1.36-1.31-2.5-1.78-1.14-.47-2.61-.7-4.4-.7Z"/>
      </g>
    </g>
  </g>
</svg>